<svg width="16" height="16" xmlns="http://www.w3.org/2000/svg"><g fill="#000" fill-rule="nonzero"><path d="M8 4.177c-2.558 0-4.552 1.601-6.997 4.197 2.107 2.22 3.875 4.2 6.997 4.2s5.417-2.507 6.997-4.153C13.38 6.493 11.085 4.177 8 4.177zm0 7.93c-2.772 0-4.445-1.72-6.354-3.733C3.917 6.005 5.723 4.644 8 4.644c2.695 0 4.802 1.943 6.37 3.758-1.542 1.607-3.63 3.705-6.37 3.705z"/><path d="M8 5.576a2.802 2.802 0 0 0-2.8 2.799A2.802 2.802 0 0 0 8 11.174c1.543 0 2.8-1.256 2.8-2.799A2.802 2.802 0 0 0 8 5.576zm0 5.131a2.335 2.335 0 0 1-2.332-2.332A2.335 2.335 0 0 1 8 6.043a2.335 2.335 0 0 1 2.332 2.332A2.335 2.335 0 0 1 8 10.707z"/><path d="M8 6.742c-.9 0-1.633.733-1.633 1.633S7.1 10.008 8 10.008s1.633-.733 1.633-1.633S8.9 6.742 8 6.742zm0 2.8a1.168 1.168 0 0 1-1.166-1.167c0-.643.523-1.166 1.166-1.166.643 0 1.166.523 1.166 1.166 0 .643-.523 1.166-1.166 1.166z"/></g></svg>