<svg width="16" height="16" xmlns="http://www.w3.org/2000/svg"><g fill="#000" fill-rule="nonzero"><path d="M8 3.202c-2.923 0-5.202 1.83-7.997 4.796 2.408 2.537 4.428 4.8 7.997 4.8s6.191-2.864 7.997-4.745C14.149 5.848 11.525 3.203 8 3.203v-.001zm0 9.063c-3.168 0-5.08-1.965-7.262-4.266C3.334 5.292 5.398 3.736 8 3.736c3.08 0 5.488 2.221 7.279 4.295-1.761 1.837-4.146 4.234-7.279 4.234z"/><path d="M8 4.801A3.202 3.202 0 0 0 4.801 8 3.202 3.202 0 0 0 8 11.198 3.202 3.202 0 0 0 11.199 8 3.202 3.202 0 0 0 8 4.801zm0 5.864A2.669 2.669 0 0 1 5.335 8 2.669 2.669 0 0 1 8 5.334 2.669 2.669 0 0 1 10.665 8 2.669 2.669 0 0 1 8 10.665z"/><path d="M8 6.134A1.868 1.868 0 0 0 6.134 8c0 1.029.837 1.866 1.866 1.866A1.868 1.868 0 0 0 9.866 8 1.868 1.868 0 0 0 8 6.134zm0 3.199A1.335 1.335 0 0 1 6.667 8c0-.735.598-1.333 1.333-1.333S9.333 7.265 9.333 8 8.735 9.333 8 9.333z"/></g></svg>